<svg xmlns="http://www.w3.org/2000/svg" width="77" height="77" viewBox="0 0 77 77" overflow="visible">
  <path fill-rule="evenodd" d="M6.9 67.8q-2.1 0-4-1.2-2-1.1-2-2.9 0-1 .4-2.1l.6-2q2.2-6.8 4.2-12.8Q8 40.9 10 35.4t4.2-11.1q2.2-5.5 4.9-11.5-2.7.5-4.7 1.4-1.9.9-3.2 1.6-1.2.7-1.8.7-.3 0-1-.5t-1.2-1.2q-.5-.6-.5-1.1 2-.9 4.7-1.8t5.9-1.6q3.2-.6 6.3-.6 3.4 0 6.9.9 3.6.9 6.6 2.6 2.9 1.8 4.8 4.4 1.8 2.6 1.8 6.2 0 3.8-1.7 6.5-1.7 2.8-4.6 4.6-2.8 1.9-6.1 3.1-3.4 1.1-6.6 1.7-3.3.6-5.9.8-2.6.2-3.9.2h-.4l-4 14.2Q8.6 62 6.9 67.8zm8.2-29.3q4.1-.3 8.1-1.4 4-1.1 7.3-3t5.3-4.8q1.9-2.9 1.9-6.7 0-3.6-1.9-5.8-1.9-2.2-4.9-3.4-3-1.1-6.3-1.2-2.6 5-4.9 11.9-2.4 6.9-4.6 14.4zm40.4 29.3q-4.2 0-7.9-1.5-3.8-1.4-6.2-4.4Q39 59 39 54.6q0-3.9 1.8-6.1 1.7-2.2 4.3-3.1 2.6-.8 5-.8-2.3 2.4-3.5 5-1.2 2.6-1.2 5t1.3 4.6q1.3 2.1 3.8 3.4 2.5 1.3 6.2 1.3 3.3 0 6.3-1 3.1-1.1 5.1-3.3 2-2.1 2-5.4 0-2.9-1.7-5-1.7-2.2-4.4-3.9-2.6-1.7-5.6-3.2-2.9-1.6-5.6-3.4-2.7-1.8-4.4-4.1-1.7-2.4-1.7-5.7 0-3 1.5-6.3 1.5-3.4 4.2-6.3 2.8-3 6.7-4.8 3.8-1.8 8.6-1.8 5 0 7 2 2 2.1 2 5.5 0 2.7-.9 5.7-1 3-2.3 5.8-1.3 2.7-2.6 4.6-1.6-.3-2.3-1.2-.8-.9-.8-2.4t.6-3.4q.6-1.9 1.4-3.9.8-2 1.5-3.9.6-1.9.6-3.4 0-1.3-.8-2-.7-.7-3-.7-3.5 0-6.4 1.5-2.9 1.5-5 3.8t-3.3 4.9q-1.1 2.5-1.1 4.6 0 2.6 1.6 4.5 1.7 1.8 4.3 3.3 2.7 1.5 5.6 3 2.9 1.5 5.5 3.4t4.3 4.5q1.7 2.6 1.7 6.3 0 3.8-1.7 6.6-1.7 2.9-4.6 4.9-2.9 2-6.4 3-3.5 1.1-7.1 1.1z" style="fill:#000"/>
</svg>
